<svg width="26" height="26" viewBox="0 0 26 26" fill="none" xmlns="http://www.w3.org/2000/svg">
<path d="M10.0564 0.31543C15.4238 0.31543 19.7749 4.66656 19.7749 10.0339C19.7749 12.1323 19.1099 14.0753 17.9792 15.6637L25.3051 22.992L23.0145 25.2826L15.6861 17.9568C14.0977 19.0875 12.1547 19.7524 10.0564 19.7524C4.68902 19.7524 0.337891 15.4013 0.337891 10.0339C0.337891 4.66656 4.68902 0.31543 10.0564 0.31543ZM10.0564 3.55494C6.47816 3.55494 3.5774 6.45569 3.5774 10.0339C3.5774 13.6122 6.47816 16.513 10.0564 16.513C13.6347 16.513 16.5354 13.6122 16.5354 10.0339C16.5354 6.45569 13.6347 3.55494 10.0564 3.55494Z" fill="#008294"/>
</svg>
