<svg width="8px" height="6.5px" viewBox="0 0 14 12" fill="none" xmlns="http://www.w3.org/2000/svg">
<path fill-rule="evenodd" clip-rule="evenodd" d="M1.66634 0.666992C0.929961 0.666992 0.333008 1.26395 0.333008 2.00033V10.0003C0.333008 10.7367 0.929961 11.3337 1.66634 11.3337H8.33301C9.06941 11.3337 9.66634 10.7367 9.66634 10.0003V8.12493C9.66634 8.07166 9.72567 8.03986 9.77001 8.06939L12.6299 9.97599C13.0729 10.2714 13.6663 9.95379 13.6663 9.42133V2.57934C13.6663 2.04687 13.0729 1.72928 12.6299 2.02464L9.77001 3.93123C9.72567 3.96077 9.66634 3.92901 9.66634 3.87576V2.00033C9.66634 1.26395 9.06941 0.666992 8.33301 0.666992H1.66634Z" fill="#707070"/>
</svg>
