<svg width="120" height="40" viewBox="0 0 120 40" fill="none" xmlns="http://www.w3.org/2000/svg">
<g clip-path="url(#clip0_2_6228)">
<path d="M110.303 0.00013H9.70265C9.33595 0.00013 8.97365 0.00013 8.60792 0.00213C8.30177 0.00413 7.99806 0.00994 7.68897 0.01483C7.01748 0.0227318 6.34758 0.0818063 5.68507 0.19154C5.02349 0.303663 4.38264 0.515046 3.78419 0.81854C3.18647 1.1246 2.64031 1.5223 2.16554 1.9972C1.68827 2.47077 1.29043 3.01815 0.987319 3.61829C0.683369 4.21724 0.472609 4.85907 0.362319 5.52161C0.25098 6.18332 0.191067 6.85265 0.183119 7.52361C0.173839 7.83021 0.172859 8.13783 0.167969 8.44447V31.5587C0.172859 31.8692 0.173839 32.17 0.183119 32.4806C0.19107 33.1516 0.250982 33.8209 0.362319 34.4825C0.472305 35.1455 0.683077 35.7877 0.987319 36.3868C1.29029 36.985 1.68819 37.5302 2.16554 38.0011C2.63851 38.4781 3.18502 38.8761 3.78419 39.1798C4.38264 39.4841 5.02342 39.6968 5.68507 39.8106C6.34769 39.9195 7.01753 39.9786 7.68897 39.9874C7.99806 39.9942 8.30177 39.9981 8.60792 39.9981C8.97364 40.0001 9.33597 40.0001 9.70265 40.0001H110.303C110.662 40.0001 111.027 40.0001 111.387 39.9981C111.691 39.9981 112.004 39.9942 112.309 39.9874C112.979 39.9791 113.647 39.92 114.309 39.8106C114.972 39.696 115.616 39.4834 116.217 39.1798C116.815 38.8759 117.361 38.478 117.834 38.0011C118.31 37.5284 118.709 36.9836 119.016 36.3868C119.318 35.7872 119.526 35.1451 119.635 34.4825C119.746 33.8208 119.808 33.1516 119.82 32.4806C119.824 32.17 119.824 31.8692 119.824 31.5587C119.832 31.1954 119.832 30.8341 119.832 30.4649V9.53626C119.832 9.17005 119.832 8.80677 119.824 8.44447C119.824 8.13783 119.824 7.83021 119.82 7.52357C119.808 6.85255 119.746 6.18337 119.635 5.52157C119.526 4.85941 119.317 4.21763 119.016 3.61825C118.398 2.41533 117.42 1.43616 116.217 0.81845C115.615 0.515697 114.972 0.30437 114.309 0.19145C113.648 0.0812328 112.979 0.0221378 112.309 0.01469C112.004 0.00981 111.691 0.00395 111.387 0.002C111.027 0 110.662 0.00013 110.303 0.00013Z" fill="#A6A6A6"/>
<path d="M8.61284 39.125C8.30816 39.125 8.01084 39.1211 7.70855 39.1143C7.08233 39.1061 6.45757 39.0516 5.83941 38.9512C5.263 38.8519 4.70461 38.6673 4.18267 38.4033C3.66551 38.1415 3.19382 37.7983 2.78567 37.3867C2.37161 36.98 2.02688 36.5082 1.76516 35.9902C1.50054 35.4688 1.31742 34.9099 1.22216 34.333C1.11928 33.7131 1.06362 33.0863 1.05566 32.458C1.04932 32.2471 1.04102 31.5449 1.04102 31.5449V8.44434C1.04102 8.44434 1.04986 7.75293 1.05571 7.5498C1.06333 6.92248 1.11867 6.29665 1.22124 5.67773C1.31667 5.09925 1.49994 4.53875 1.7647 4.01563C2.02546 3.49794 2.36827 3.02586 2.77984 2.61768C3.19094 2.20562 3.66414 1.8606 4.18218 1.59521C4.70292 1.33209 5.26025 1.14873 5.8355 1.05127C6.45569 0.949836 7.08262 0.894996 7.71101 0.88721L8.61333 0.875H111.382L112.295 0.8877C112.918 0.895099 113.539 0.94945 114.153 1.05029C114.734 1.14898 115.298 1.33362 115.824 1.59814C116.862 2.13299 117.707 2.97916 118.239 4.01807C118.5 4.53758 118.68 5.09351 118.774 5.66699C118.878 6.29099 118.936 6.92174 118.948 7.5542C118.951 7.8374 118.951 8.1416 118.951 8.44434C118.959 8.81934 118.959 9.17627 118.959 9.53613V30.4648C118.959 30.8281 118.959 31.1826 118.951 31.54C118.951 31.8652 118.951 32.1631 118.947 32.4697C118.936 33.0909 118.878 33.7104 118.776 34.3232C118.683 34.9043 118.501 35.4675 118.236 35.9932C117.973 36.5056 117.63 36.9733 117.221 37.3789C116.812 37.7927 116.34 38.1379 115.821 38.4014C115.296 38.6674 114.734 38.8527 114.153 38.9512C113.535 39.0522 112.91 39.1067 112.284 39.1143C111.991 39.1211 111.685 39.125 111.387 39.125L110.303 39.127L8.61284 39.125Z" fill="black"/>
<path d="M24.936 20.3013C24.9467 19.4666 25.1684 18.6483 25.5805 17.9223C25.9925 17.1964 26.5815 16.5864 27.2925 16.1492C26.8408 15.5041 26.2449 14.9731 25.552 14.5986C24.8592 14.224 24.0886 14.0162 23.3014 13.9916C21.6221 13.8153 19.9942 14.9964 19.1385 14.9964C18.2662 14.9964 16.9487 14.0091 15.53 14.0383C14.6123 14.0679 13.718 14.3348 12.9341 14.8128C12.1502 15.2909 11.5035 15.9638 11.0571 16.7661C9.12306 20.1145 10.5657 25.0356 12.4183 27.7422C13.3452 29.0676 14.4284 30.548 15.8459 30.4955C17.233 30.438 17.751 29.611 19.4253 29.611C21.0841 29.611 21.5701 30.4955 23.0163 30.4621C24.5047 30.438 25.4424 29.1309 26.3368 27.793C27.0028 26.8486 27.5152 25.8049 27.8552 24.7005C26.9905 24.3347 26.2526 23.7226 25.7335 22.9403C25.2144 22.158 24.937 21.2402 24.936 20.3013Z" fill="white"/>
<path d="M22.2036 12.2113C23.0151 11.2371 23.4149 9.98494 23.3181 8.7207C22.0783 8.85092 20.933 9.44348 20.1105 10.3803C19.7084 10.838 19.4004 11.3704 19.2041 11.9472C19.0079 12.524 18.9273 13.1337 18.9668 13.7417C19.587 13.7481 20.2005 13.6137 20.7611 13.3486C21.3218 13.0835 21.815 12.6946 22.2036 12.2113Z" fill="white"/>
<path d="M42.4688 27.1397H37.7354L36.5986 30.4961H34.5938L39.0772 18.0781H41.1602L45.6436 30.4961H43.6045L42.4688 27.1397ZM38.2256 25.5908H41.9776L40.128 20.1436H40.0762L38.2256 25.5908Z" fill="white"/>
<path d="M55.3252 25.9695C55.3252 28.7829 53.8194 30.5905 51.5469 30.5905C50.9713 30.6207 50.3988 30.4881 49.895 30.2079C49.3912 29.9278 48.9764 29.5114 48.6983 29.0065H48.6553V33.4909H46.7969V21.4421H48.5957V22.948H48.6299C48.9209 22.4455 49.3426 22.0313 49.8502 21.7495C50.3579 21.4676 50.9324 21.3287 51.5127 21.3474C53.8105 21.3474 55.3252 23.1638 55.3252 25.9695ZM53.4151 25.9695C53.4151 24.1365 52.4678 22.9314 51.0225 22.9314C49.6026 22.9314 48.6475 24.1618 48.6475 25.9695C48.6475 27.7937 49.6026 29.0154 51.0225 29.0154C52.4678 29.0154 53.4151 27.8191 53.4151 25.9695Z" fill="white"/>
<path d="M65.2901 25.9694C65.2901 28.7829 63.7842 30.5905 61.5117 30.5905C60.9361 30.6206 60.3636 30.488 59.8598 30.2079C59.356 29.9278 58.9413 29.5114 58.6631 29.0065H58.6201V33.4909H56.7617V21.4421H58.5605V22.948H58.5947C58.8857 22.4455 59.3074 22.0313 59.815 21.7495C60.3227 21.4676 60.8972 21.3287 61.4775 21.3474C63.7754 21.3474 65.2901 23.1638 65.2901 25.9694ZM63.3799 25.9694C63.3799 24.1364 62.4326 22.9314 60.9873 22.9314C59.5674 22.9314 58.6123 24.1618 58.6123 25.9694C58.6123 27.7937 59.5674 29.0153 60.9873 29.0153C62.4326 29.0153 63.3799 27.8191 63.3799 25.9694Z" fill="white"/>
<path d="M71.877 27.0362C72.0147 28.2676 73.211 29.0762 74.8457 29.0762C76.4121 29.0762 77.5391 28.2676 77.5391 27.1572C77.5391 26.1934 76.8594 25.6162 75.25 25.2207L73.6407 24.833C71.3604 24.2822 70.3018 23.2158 70.3018 21.4854C70.3018 19.3428 72.169 17.8711 74.8203 17.8711C77.4443 17.8711 79.2432 19.3428 79.3037 21.4854H77.4277C77.3154 20.2461 76.291 19.4981 74.794 19.4981C73.2969 19.4981 72.2725 20.2549 72.2725 21.3565C72.2725 22.2344 72.9268 22.751 74.5274 23.1465L75.8955 23.4824C78.4434 24.0849 79.502 25.1084 79.502 26.9248C79.502 29.248 77.6514 30.7031 74.708 30.7031C71.9541 30.7031 70.0947 29.2822 69.9746 27.0361L71.877 27.0362Z" fill="white"/>
<path d="M83.5117 19.2998V21.4424H85.2334V22.9141H83.5117V27.9053C83.5117 28.6807 83.8564 29.042 84.6133 29.042C84.8177 29.0384 85.0217 29.0241 85.2246 28.999V30.4619C84.8843 30.5255 84.5385 30.5543 84.1924 30.5478C82.3594 30.5478 81.6445 29.8593 81.6445 28.1035V22.9141H80.3281V21.4424H81.6445V19.2998H83.5117Z" fill="white"/>
<path d="M86.2324 25.9697C86.2324 23.1211 87.9101 21.3311 90.5264 21.3311C93.1514 21.3311 94.8213 23.1211 94.8213 25.9697C94.8213 28.8262 93.1602 30.6084 90.5264 30.6084C87.8935 30.6084 86.2324 28.8262 86.2324 25.9697ZM92.9277 25.9697C92.9277 24.0156 92.0322 22.8623 90.5264 22.8623C89.0205 22.8623 88.126 24.0244 88.126 25.9697C88.126 27.9316 89.0205 29.0762 90.5264 29.0762C92.0322 29.0762 92.9277 27.9316 92.9277 25.9697Z" fill="white"/>
<path d="M96.3516 21.442H98.124V22.983H98.167C98.287 22.5017 98.5689 22.0764 98.9655 21.7785C99.3621 21.4806 99.8491 21.3284 100.345 21.3473C100.559 21.3465 100.773 21.3698 100.981 21.4166V23.1549C100.711 23.0723 100.429 23.0343 100.146 23.0426C99.8765 23.0316 99.6074 23.0792 99.3575 23.1821C99.1077 23.285 98.883 23.4408 98.6991 23.6386C98.5151 23.8365 98.3761 24.0719 98.2917 24.3286C98.2073 24.5852 98.1794 24.8571 98.21 25.1256V30.4957H96.3516L96.3516 21.442Z" fill="white"/>
<path d="M109.55 27.8369C109.3 29.4805 107.699 30.6084 105.651 30.6084C103.018 30.6084 101.383 28.8437 101.383 26.0127C101.383 23.1729 103.026 21.3311 105.573 21.3311C108.078 21.3311 109.653 23.0518 109.653 25.7969V26.4336H103.259V26.5459C103.229 26.8791 103.271 27.2148 103.381 27.5306C103.491 27.8464 103.667 28.1352 103.898 28.3778C104.128 28.6203 104.408 28.8111 104.717 28.9374C105.027 29.0637 105.36 29.1226 105.694 29.1103C106.134 29.1515 106.574 29.0498 106.951 28.8203C107.328 28.5909 107.62 28.246 107.785 27.8369L109.55 27.8369ZM103.268 25.1348H107.794C107.811 24.8352 107.765 24.5354 107.661 24.2541C107.556 23.9729 107.394 23.7164 107.186 23.5006C106.977 23.2849 106.726 23.1145 106.449 23.0003C106.171 22.8861 105.873 22.8305 105.573 22.8369C105.271 22.8351 104.971 22.8933 104.691 23.008C104.411 23.1227 104.156 23.2918 103.942 23.5054C103.727 23.7191 103.557 23.973 103.442 24.2527C103.326 24.5323 103.267 24.8321 103.268 25.1348Z" fill="white"/>
<path d="M37.9951 8.7304C38.3847 8.70244 38.7757 8.7613 39.1398 8.90274C39.5039 9.04417 39.8321 9.26465 40.1007 9.54828C40.3693 9.8319 40.5716 10.1716 40.693 10.5429C40.8144 10.9141 40.8519 11.3077 40.8027 11.6952C40.8027 13.6015 39.7725 14.6972 37.9951 14.6972H35.8398V8.7304H37.9951ZM36.7666 13.8534H37.8916C38.17 13.87 38.4486 13.8244 38.7071 13.7198C38.9657 13.6152 39.1976 13.4542 39.3861 13.2487C39.5746 13.0431 39.7149 12.7981 39.7968 12.5315C39.8786 12.2648 39.9 11.9833 39.8594 11.7074C39.8971 11.4326 39.8735 11.1528 39.7904 10.8881C39.7073 10.6235 39.5667 10.3805 39.3786 10.1765C39.1905 9.97261 38.9597 9.8128 38.7026 9.70856C38.4455 9.60433 38.1686 9.55824 37.8916 9.57361H36.7666V13.8534Z" fill="white"/>
<path d="M41.8499 12.4438C41.8216 12.1479 41.8554 11.8493 41.9493 11.5672C42.0431 11.2852 42.1949 11.0258 42.3948 10.8059C42.5948 10.5859 42.8385 10.4101 43.1103 10.2898C43.3822 10.1696 43.6762 10.1074 43.9734 10.1074C44.2707 10.1074 44.5647 10.1696 44.8365 10.2898C45.1084 10.4101 45.3521 10.5859 45.552 10.8059C45.752 11.0258 45.9037 11.2852 45.9976 11.5672C46.0914 11.8493 46.1253 12.1479 46.097 12.4438C46.1258 12.74 46.0924 13.039 45.9988 13.3215C45.9052 13.6041 45.7535 13.8639 45.5535 14.0843C45.3535 14.3047 45.1096 14.4808 44.8375 14.6014C44.5654 14.7219 44.271 14.7842 43.9734 14.7842C43.6758 14.7842 43.3815 14.7219 43.1093 14.6014C42.8372 14.4808 42.5933 14.3047 42.3933 14.0843C42.1933 13.8639 42.0417 13.6041 41.9481 13.3215C41.8545 13.039 41.821 12.74 41.8499 12.4438ZM45.1829 12.4438C45.1829 11.4677 44.7444 10.8969 43.9749 10.8969C43.2024 10.8969 42.7679 11.4677 42.7679 12.4438C42.7679 13.4277 43.2025 13.9941 43.9749 13.9941C44.7444 13.9941 45.1829 13.4238 45.1829 12.4438Z" fill="white"/>
<path d="M51.7422 14.6973H50.8203L49.8897 11.3809H49.8193L48.8926 14.6973H47.9795L46.7383 10.1943H47.6397L48.4463 13.6303H48.5127L49.4385 10.1943H50.291L51.2168 13.6303H51.2871L52.0898 10.1943H52.9785L51.7422 14.6973Z" fill="white"/>
<path d="M54.0215 10.1939H54.877V10.9092H54.9434C55.056 10.6523 55.246 10.4369 55.4869 10.2931C55.7278 10.1493 56.0075 10.0842 56.2871 10.107C56.5062 10.0905 56.7262 10.1235 56.9308 10.2036C57.1354 10.2837 57.3194 10.4088 57.469 10.5697C57.6187 10.7305 57.7303 10.923 57.7955 11.1328C57.8607 11.3426 57.8779 11.5644 57.8457 11.7818V14.6968H56.957V12.0049C56.957 11.2813 56.6426 10.9214 55.9854 10.9214C55.8366 10.9145 55.6881 10.9398 55.55 10.9957C55.412 11.0515 55.2876 11.1365 55.1855 11.2449C55.0834 11.3533 55.0059 11.4825 54.9584 11.6236C54.9108 11.7647 54.8944 11.9145 54.9102 12.0625V14.6968H54.0215L54.0215 10.1939Z" fill="white"/>
<path d="M59.2617 8.43652H60.1504V14.6973H59.2617V8.43652Z" fill="white"/>
<path d="M61.387 12.4439C61.3587 12.1479 61.3926 11.8494 61.4864 11.5673C61.5803 11.2852 61.7321 11.0259 61.932 10.8059C62.132 10.5859 62.3757 10.4101 62.6476 10.2898C62.9195 10.1696 63.2135 10.1074 63.5108 10.1074C63.808 10.1074 64.1021 10.1696 64.3739 10.2898C64.6458 10.4101 64.8895 10.5859 65.0895 10.8059C65.2894 11.0259 65.4412 11.2852 65.5351 11.5673C65.6289 11.8494 65.6628 12.1479 65.6345 12.4439C65.6633 12.7401 65.6299 13.0391 65.5362 13.3216C65.4426 13.6042 65.2909 13.864 65.0909 14.0844C64.8909 14.3048 64.647 14.4809 64.3749 14.6014C64.1027 14.722 63.8084 14.7842 63.5108 14.7842C63.2131 14.7842 62.9188 14.722 62.6466 14.6014C62.3745 14.4809 62.1306 14.3048 61.9306 14.0844C61.7306 13.864 61.5789 13.6042 61.4853 13.3216C61.3916 13.0391 61.3582 12.7401 61.387 12.4439ZM64.72 12.4439C64.72 11.4678 64.2815 10.897 63.512 10.897C62.7395 10.897 62.305 11.4678 62.305 12.4439C62.305 13.4278 62.7395 13.9942 63.512 13.9942C64.2815 13.9942 64.72 13.4239 64.72 12.4439Z" fill="white"/>
<path d="M66.5703 13.4238C66.5703 12.6133 67.1738 12.146 68.2451 12.0796L69.4648 12.0093V11.6206C69.4648 11.145 69.1504 10.8765 68.543 10.8765C68.0469 10.8765 67.7031 11.0586 67.6045 11.377H66.7441C66.835 10.6035 67.5625 10.1074 68.584 10.1074C69.7129 10.1074 70.3496 10.6694 70.3496 11.6206V14.6973H69.4941V14.0645H69.4238C69.2811 14.2914 69.0807 14.4765 68.8431 14.6007C68.6055 14.7249 68.3391 14.7838 68.0713 14.7715C67.8823 14.7911 67.6912 14.7709 67.5104 14.7122C67.3297 14.6536 67.1632 14.5576 67.0218 14.4307C66.8804 14.3037 66.7671 14.1485 66.6894 13.9751C66.6116 13.8017 66.5711 13.6139 66.5703 13.4238ZM69.4648 13.0391V12.6626L68.3652 12.7329C67.7451 12.7744 67.4639 12.9853 67.4639 13.3823C67.4639 13.7876 67.8154 14.0234 68.2989 14.0234C68.4405 14.0378 68.5836 14.0235 68.7196 13.9814C68.8556 13.9393 68.9817 13.8703 69.0905 13.7784C69.1993 13.6866 69.2885 13.5738 69.3528 13.4468C69.4171 13.3198 69.4552 13.1811 69.4648 13.0391Z" fill="white"/>
<path d="M71.5176 12.4439C71.5176 11.021 72.249 10.1196 73.3867 10.1196C73.6681 10.1067 73.9474 10.1741 74.192 10.314C74.4365 10.4539 74.6361 10.6605 74.7676 10.9096H74.834V8.43652H75.7227V14.6973H74.8711V13.9858H74.8008C74.6592 14.2333 74.4526 14.4374 74.2033 14.5758C73.9541 14.7143 73.6717 14.782 73.3867 14.7715C72.2412 14.7715 71.5176 13.8701 71.5176 12.4439ZM72.4356 12.4439C72.4356 13.3989 72.8858 13.9737 73.6387 13.9737C74.3877 13.9737 74.8506 13.3907 74.8506 12.4478C74.8506 11.5093 74.3829 10.918 73.6387 10.918C72.8906 10.918 72.4356 11.4966 72.4356 12.4439Z" fill="white"/>
<path d="M79.3987 12.4438C79.3704 12.1479 79.4043 11.8493 79.4981 11.5672C79.5919 11.2852 79.7437 11.0258 79.9436 10.8059C80.1436 10.5859 80.3873 10.4101 80.6591 10.2898C80.931 10.1696 81.225 10.1074 81.5223 10.1074C81.8195 10.1074 82.1135 10.1696 82.3854 10.2898C82.6572 10.4101 82.9009 10.5859 83.1009 10.8059C83.3008 11.0258 83.4526 11.2852 83.5464 11.5672C83.6402 11.8493 83.6741 12.1479 83.6458 12.4438C83.6746 12.74 83.6412 13.039 83.5476 13.3215C83.454 13.6041 83.3023 13.8639 83.1023 14.0843C82.9023 14.3047 82.6585 14.4808 82.3863 14.6014C82.1142 14.7219 81.8199 14.7842 81.5223 14.7842C81.2246 14.7842 80.9303 14.7219 80.6582 14.6014C80.386 14.4808 80.1422 14.3047 79.9422 14.0843C79.7422 13.8639 79.5905 13.6041 79.4969 13.3215C79.4033 13.039 79.3699 12.74 79.3987 12.4438ZM82.7317 12.4438C82.7317 11.4677 82.2932 10.8969 81.5237 10.8969C80.7513 10.8969 80.3167 11.4677 80.3167 12.4438C80.3167 13.4277 80.7513 13.9941 81.5237 13.9941C82.2932 13.9941 82.7317 13.4238 82.7317 12.4438Z" fill="white"/>
<path d="M84.8379 10.1939H85.6934V10.9092H85.7598C85.8724 10.6523 86.0624 10.4369 86.3033 10.2931C86.5442 10.1493 86.8239 10.0842 87.1035 10.107C87.3226 10.0905 87.5426 10.1235 87.7472 10.2036C87.9518 10.2837 88.1358 10.4088 88.2855 10.5697C88.4351 10.7305 88.5467 10.923 88.6119 11.1328C88.6771 11.3426 88.6943 11.5644 88.6621 11.7818V14.6968H87.7734V12.0049C87.7734 11.2813 87.459 10.9214 86.8018 10.9214C86.653 10.9145 86.5045 10.9398 86.3664 10.9957C86.2284 11.0515 86.104 11.1365 86.0019 11.2449C85.8998 11.3533 85.8223 11.4825 85.7748 11.6236C85.7273 11.7647 85.7108 11.9145 85.7266 12.0625V14.6968H84.8379V10.1939Z" fill="white"/>
<path d="M93.6846 9.07324V10.2148H94.6602V10.9634H93.6846V13.2788C93.6846 13.7505 93.8789 13.957 94.3213 13.957C94.4345 13.9567 94.5477 13.9498 94.6602 13.9365V14.6768C94.5006 14.7053 94.3389 14.7205 94.1768 14.7222C93.1885 14.7222 92.7949 14.3745 92.7949 13.5063V10.9633H92.0801V10.2148H92.7949V9.07324H93.6846Z" fill="white"/>
<path d="M95.873 8.43652H96.7539V10.918H96.8242C96.9423 10.6587 97.1376 10.4421 97.3833 10.2977C97.629 10.1534 97.9132 10.0883 98.1972 10.1113C98.4152 10.0995 98.6331 10.1359 98.8353 10.2179C99.0376 10.2999 99.2193 10.4256 99.3674 10.586C99.5155 10.7463 99.6265 10.9373 99.6922 11.1455C99.758 11.3536 99.7771 11.5737 99.748 11.79V14.6973H98.8584V12.0093C98.8584 11.29 98.5234 10.9258 97.8955 10.9258C97.7428 10.9132 97.5892 10.9342 97.4454 10.9873C97.3016 11.0404 97.1712 11.1242 97.0632 11.2329C96.9552 11.3417 96.8723 11.4727 96.8202 11.6168C96.7681 11.761 96.7482 11.9147 96.7618 12.0674V14.6973H95.8731L95.873 8.43652Z" fill="white"/>
<path d="M104.929 13.4815C104.809 13.8931 104.547 14.249 104.19 14.4872C103.834 14.7253 103.405 14.8305 102.978 14.7842C102.682 14.7921 102.387 14.7353 102.114 14.6177C101.842 14.5002 101.598 14.3248 101.4 14.1036C101.202 13.8825 101.055 13.6209 100.968 13.3371C100.881 13.0533 100.858 12.754 100.898 12.46C100.859 12.1652 100.883 11.8652 100.969 11.5805C101.056 11.2959 101.203 11.0331 101.399 10.81C101.596 10.587 101.839 10.4088 102.11 10.2876C102.382 10.1664 102.677 10.105 102.974 10.1075C104.227 10.1075 104.983 10.9635 104.983 12.3775V12.6876H101.803V12.7374C101.789 12.9026 101.81 13.069 101.864 13.2257C101.918 13.3825 102.005 13.5262 102.118 13.6476C102.231 13.7691 102.368 13.8656 102.52 13.931C102.672 13.9964 102.837 14.0292 103.003 14.0274C103.215 14.0529 103.431 14.0146 103.621 13.9174C103.812 13.8202 103.97 13.6685 104.074 13.4815L104.929 13.4815ZM101.803 12.0303H104.078C104.089 11.8792 104.068 11.7274 104.017 11.5847C103.967 11.442 103.886 11.3115 103.782 11.2016C103.677 11.0918 103.551 11.005 103.411 10.9468C103.271 10.8886 103.121 10.8604 102.969 10.8638C102.816 10.8619 102.663 10.8908 102.521 10.9487C102.378 11.0067 102.249 11.0925 102.14 11.2012C102.032 11.3099 101.946 11.4393 101.888 11.5817C101.83 11.7241 101.801 11.8766 101.803 12.0303Z" fill="white"/>
</g>
<defs>
<clipPath id="clip0_2_6228">
<rect width="119.664" height="40" fill="white" transform="translate(0.167969)"/>
</clipPath>
</defs>
</svg>
