<svg width="16" height="16" viewBox="0 0 18 18" fill="none" xmlns="http://www.w3.org/2000/svg">
<path fill-rule="evenodd" clip-rule="evenodd" d="M13.125 7.625C13.125 10.6626 10.6626 13.125 7.625 13.125C4.58743 13.125 2.125 10.6626 2.125 7.625C2.125 4.58743 4.58743 2.125 7.625 2.125C10.6626 2.125 13.125 4.58743 13.125 7.625ZM14.5 7.625C14.5 11.4219 11.4219 14.5 7.625 14.5C3.82804 14.5 0.75 11.4219 0.75 7.625C0.75 3.82804 3.82804 0.75 7.625 0.75C11.4219 0.75 14.5 3.82804 14.5 7.625ZM13.0972 14.0694L12.6271 13.5993C12.979 13.3044 13.3044 12.979 13.5993 12.6271L14.0694 13.0972L16.8194 15.8472C17.0879 16.1157 17.0879 16.551 16.8194 16.8194C16.551 17.0879 16.1157 17.0879 15.8472 16.8194L13.0972 14.0694Z" fill="#707070"/>
</svg>
