<svg width="16" height="16" viewBox="0 0 16 16" fill="none" xmlns="http://www.w3.org/2000/svg">
<path fill-rule="evenodd" clip-rule="evenodd" d="M11.75 6.75C11.75 9.51142 9.51142 11.75 6.75 11.75C3.98857 11.75 1.75 9.51142 1.75 6.75C1.75 3.98857 3.98857 1.75 6.75 1.75C9.51142 1.75 11.75 3.98857 11.75 6.75ZM13 6.75C13 10.2017 10.2017 13 6.75 13C3.29822 13 0.5 10.2017 0.5 6.75C0.5 3.29822 3.29822 0.5 6.75 0.5C10.2017 0.5 13 3.29822 13 6.75ZM11.7247 12.6086L11.2973 12.1812C11.6173 11.9131 11.9131 11.6173 12.1812 11.2973L12.6086 11.7247L15.1086 14.2247C15.3527 14.4688 15.3527 14.8645 15.1086 15.1086C14.8645 15.3527 14.4688 15.3527 14.2247 15.1086L11.7247 12.6086Z" fill="white"/>
</svg>
