<svg width="16" height="17" viewBox="0 0 16 17" fill="none" xmlns="http://www.w3.org/2000/svg">
<path fill-rule="evenodd" clip-rule="evenodd" d="M10.5205 0.799667C11.2364 0.0837047 12.3972 0.0837047 13.1132 0.799667L14.4096 2.09603C15.1256 2.81199 15.1256 3.97279 14.4096 4.68875L13.1132 5.98511L9.22417 2.09603L10.5205 0.799667ZM8.57591 2.74419L12.465 6.63328L4.9553 14.143C4.78339 14.3149 4.55024 14.4115 4.30712 14.4115H1.25607C1.00293 14.4115 0.797733 14.2062 0.797733 13.9531V10.9021C0.797733 10.6589 0.894304 10.4258 1.06622 10.2539L8.57591 2.74419ZM1.37402 15.5449C0.994331 15.5449 0.686523 15.8527 0.686523 16.2324C0.686523 16.6122 0.994331 16.9199 1.37402 16.9199H14.6657C15.0454 16.9199 15.3532 16.6122 15.3532 16.2324C15.3532 15.8527 15.0454 15.5449 14.6657 15.5449H1.37402Z" fill="#00798A"/>
</svg>
