<svg width="15" height="15" viewBox="0 0 15 15" fill="none" xmlns="http://www.w3.org/2000/svg">
<path fill-rule="evenodd" clip-rule="evenodd" d="M7.54309 13.4294C8.20019 13.4294 8.97747 12.9799 9.64782 11.8627C9.84389 11.536 10.0207 11.166 10.1723 10.7597H4.91387C5.0655 11.166 5.24231 11.536 5.43835 11.8627C6.10869 12.9799 6.88598 13.4294 7.54309 13.4294ZM4.59513 9.69181C4.43185 8.98408 4.33942 8.20438 4.33942 7.37805C4.33942 6.55171 4.43185 5.77202 4.59513 5.06429H10.491C10.6543 5.77202 10.7468 6.55171 10.7468 7.37805C10.7468 8.20438 10.6543 8.98408 10.491 9.69181H4.59513ZM11.3029 10.7597C11.0593 11.5106 10.737 12.1803 10.3545 12.7381C11.244 12.2705 12.0029 11.5881 12.5622 10.7597H11.3029ZM13.1363 9.69181H11.584C11.7335 8.96635 11.8146 8.188 11.8146 7.37805C11.8146 6.56809 11.7335 5.78971 11.584 5.06429H13.1363C13.4316 5.77708 13.5945 6.55855 13.5945 7.37805C13.5945 8.19755 13.4316 8.97903 13.1363 9.69181ZM3.50219 9.69181H1.94981C1.65462 8.97903 1.49172 8.19755 1.49172 7.37805C1.49172 6.55855 1.65462 5.77708 1.94981 5.06429H3.50219C3.35269 5.78971 3.27153 6.56809 3.27153 7.37805C3.27153 8.188 3.35269 8.96635 3.50219 9.69181ZM2.52403 10.7597H3.78324C4.02691 11.5106 4.34919 12.1803 4.73171 12.7381C3.84217 12.2705 3.08326 11.5881 2.52403 10.7597ZM4.91387 3.9964H10.1723C10.0207 3.59012 9.84389 3.22012 9.64782 2.8934C8.97747 1.77616 8.20019 1.32668 7.54309 1.32668C6.88598 1.32668 6.10869 1.77616 5.43835 2.8934C5.24231 3.22012 5.0655 3.59012 4.91387 3.9964ZM11.3029 3.9964H12.5622C12.0029 3.16802 11.244 2.48554 10.3545 2.018C10.737 2.57577 11.0593 3.24546 11.3029 3.9964ZM4.73171 2.018C4.34919 2.57578 4.0269 3.24546 3.78324 3.9964H2.52402C3.08326 3.16802 3.84217 2.48554 4.73171 2.018ZM7.54309 0.258789C11.4749 0.258789 14.6623 3.44619 14.6623 7.37805C14.6623 11.3099 11.4749 14.4973 7.54309 14.4973C3.61123 14.4973 0.423828 11.3099 0.423828 7.37805C0.423828 3.44619 3.61123 0.258789 7.54309 0.258789Z" fill="#212121"/>
</svg>
