<svg width="27" height="27" viewBox="0 0 27 27" fill="none" xmlns="http://www.w3.org/2000/svg">
<path d="M13.6891 0.911133C14.8633 0.911133 15.8151 1.86294 15.8151 3.03706V11.5407H24.3188C25.4929 11.5407 26.4447 12.4925 26.4447 13.6667C26.4447 14.8408 25.4929 15.7926 24.3188 15.7926H15.8151V24.2963C15.8151 25.4704 14.8633 26.4222 13.6891 26.4222C12.515 26.4222 11.5632 25.4704 11.5632 24.2963V15.7926H3.05952C1.88541 15.7926 0.933594 14.8408 0.933594 13.6667C0.933594 12.4925 1.88541 11.5407 3.05952 11.5407H11.5632V3.03706C11.5632 1.86294 12.515 0.911133 13.6891 0.911133Z" fill="#008294"/>
</svg>
